<?xml version="1.0" standalone="no"?>
<!DOCTYPE svg PUBLIC "-//W3C//DTD SVG 20010904//EN"
 "http://www.w3.org/TR/2001/REC-SVG-20010904/DTD/svg10.dtd">
<svg version="1.0" xmlns="http://www.w3.org/2000/svg"
 width="62.000000pt" height="54.000000pt" viewBox="0 0 62.000000 54.000000"
 preserveAspectRatio="xMidYMid meet">

<g transform="translate(0.000000,54.000000) scale(0.100000,-0.100000)"
fill="#000000" stroke="none">
<path d="M127 473 c-4 -3 -7 -19 -7 -34 0 -24 -4 -28 -32 -31 l-33 -3 -3 -173
-2 -172 212 2 213 3 3 32 c3 28 7 32 35 35 l32 3 3 173 2 172 -208 0 c-115 0
-212 -3 -215 -7z m403 -163 l0 -150 -25 0 -24 0 -3 123 -3 122 -162 3 -163 2
0 25 0 25 190 0 190 0 0 -150z m-80 -80 l0 -150 -190 0 -190 0 0 150 0 150
190 0 190 0 0 -150z"/>
<path d="M158 250 c-21 -23 -38 -51 -38 -63 0 -18 8 -12 46 31 26 29 49 51 51
48 3 -2 -1 -21 -8 -41 -11 -31 -11 -37 1 -45 25 -16 40 -11 71 23 27 29 31 30
40 15 6 -10 19 -18 30 -18 28 0 61 19 54 31 -4 5 -14 5 -28 -2 -18 -10 -23 -8
-35 10 -20 30 -43 26 -74 -11 -30 -37 -45 -34 -27 5 30 65 -26 76 -83 17z"/>
</g>
</svg>
